<svg width="102" height="68" viewBox="0 0 102 68" fill="none" xmlns="http://www.w3.org/2000/svg">
<path d="M64.8645 10.5664C62.5979 10.5664 60.6542 10.5892 58.7276 10.5407C58.4726 10.5407 58.1751 10.2094 57.991 9.96945C57.4867 9.28396 57.005 8.57563 56.5744 7.84731C54.8744 5.08538 50.582 5.23961 48.9019 6.91333C47.4797 8.27947 46.1798 9.76952 45.0175 11.3661C42.4138 15.0792 39.521 18.5066 36.0815 21.4541C33.982 23.2364 32.3104 25.3385 31.7778 28.1176C31.1828 31.2251 33.1575 33.453 36.2741 33.0931C39.7788 32.6875 43.2921 32.2362 46.7373 31.5022C49.6924 30.8911 52.7382 30.8766 55.6989 31.4593C59.6031 32.162 63.564 32.5561 67.4937 33.1102C68.6582 33.2759 69.477 32.7846 70.089 31.8735C71.0494 30.4797 71.1769 28.9516 70.7689 27.355C70.1993 25.1384 68.8226 23.2193 66.9129 21.9797C66.0729 21.4737 65.112 21.2081 64.1335 21.2114C59.9884 21.1343 55.8405 21.16 51.6955 21.2114C50.7095 21.2114 50.3724 20.8972 50.4234 19.9147C50.4488 18.9568 50.4176 17.9983 50.3299 17.0442C50.2817 16.3187 50.5055 15.9988 51.296 16.0017C56.189 16.0188 61.0821 15.9846 65.9751 15.9817C67.5568 15.9673 69.0981 16.4849 70.3553 17.4526C74.2878 20.483 76.7131 24.3732 76.6083 29.5257C76.5119 34.2441 73.1064 38.417 68.9047 38.754C66.9356 38.9111 64.9041 38.6141 62.9265 38.3399C59.3283 37.8372 55.7584 37.1346 52.1602 36.6576C51.0524 36.5119 49.8766 36.7575 48.7603 36.9432C45.0374 37.5316 41.3343 38.2599 37.6001 38.7626C33.0046 39.3767 29.0635 37.4545 27.1397 33.7786C25.4709 30.5939 25.7769 27.3664 27.1397 24.1618C28.3316 21.4187 30.1546 19.0013 32.4577 17.1099C35.4695 14.5565 37.9542 11.5489 40.2917 8.36999C41.8783 6.21357 43.6236 4.08572 45.6295 2.35202C49.6187 -1.1468 57.498 -1.03827 61.2492 4.69694C62.459 6.54489 63.5725 8.45282 64.8645 10.5664Z" fill="white"/>
<path d="M10.4957 51.3802C10.1932 50.8255 9.77711 50.4031 9.2476 50.1131C8.71808 49.8232 8.10032 49.6782 7.3943 49.6782C6.61263 49.6782 5.91922 49.8547 5.31406 50.2077C4.7089 50.5607 4.23612 51.065 3.89572 51.7206C3.55531 52.3762 3.38511 53.1326 3.38511 53.99C3.38511 54.8725 3.55531 55.6415 3.89572 56.2971C4.24873 56.9527 4.73411 57.457 5.35188 57.81C5.96965 58.163 6.68828 58.3395 7.50776 58.3395C8.51636 58.3395 9.34215 58.0748 9.98514 57.5453C10.6281 57.0031 11.0505 56.253 11.2522 55.2948H6.71349V53.2713H13.8619V55.5785C13.6854 56.4988 13.3072 57.3498 12.7273 58.1315C12.1473 58.9132 11.3972 59.5436 10.4768 60.0226C9.56909 60.4891 8.54788 60.7224 7.41321 60.7224C6.13985 60.7224 4.98626 60.4387 3.95245 59.8713C2.93124 59.2914 2.12436 58.4908 1.53181 57.4696C0.951866 56.4484 0.661893 55.2885 0.661893 53.99C0.661893 52.6914 0.951866 51.5315 1.53181 50.5103C2.12436 49.4765 2.93124 48.6759 3.95245 48.1086C4.98626 47.5286 6.13355 47.2386 7.3943 47.2386C8.88198 47.2386 10.1742 47.6043 11.2711 48.3355C12.368 49.0541 13.1244 50.069 13.5404 51.3802H10.4957ZM27.2999 49.9808C28.548 49.9808 29.5566 50.3779 30.3257 51.1722C31.0947 51.9538 31.4792 53.0507 31.4792 54.4627V60.6089H28.8317V54.822C28.8317 53.99 28.6236 53.3533 28.2076 52.912C27.7915 52.4581 27.2242 52.2312 26.5056 52.2312C25.7743 52.2312 25.1944 52.4581 24.7657 52.912C24.3497 53.3533 24.1417 53.99 24.1417 54.822V60.6089H21.4941V50.1321H24.1417V51.4369C24.4947 50.9831 24.9423 50.6301 25.4844 50.3779C26.0391 50.1131 26.6443 49.9808 27.2999 49.9808ZM41.013 48.8839C40.5465 48.8839 40.1557 48.7389 39.8405 48.449C39.5379 48.1464 39.3866 47.7745 39.3866 47.3332C39.3866 46.8919 39.5379 46.5263 39.8405 46.2363C40.1557 45.9338 40.5465 45.7825 41.013 45.7825C41.4795 45.7825 41.864 45.9338 42.1666 46.2363C42.4818 46.5263 42.6394 46.8919 42.6394 47.3332C42.6394 47.7745 42.4818 48.1464 42.1666 48.449C41.864 48.7389 41.4795 48.8839 41.013 48.8839ZM42.3179 50.1321V60.6089H39.6703V50.1321H42.3179ZM53.0277 58.4341H57.6988V60.6089H50.0208V58.4719L54.5973 52.3069H50.0397V50.1321H57.6421V52.269L53.0277 58.4341ZM67.8427 58.4341H72.5138V60.6089H64.8359V58.4719L69.4124 52.3069H64.8548V50.1321H72.4571V52.269L67.8427 58.4341ZM89.9764 55.1435C89.9764 55.5218 89.9512 55.8622 89.9008 56.1647H82.2417C82.3048 56.9212 82.5695 57.5137 83.036 57.9424C83.5025 58.3711 84.0761 58.5854 84.7569 58.5854C85.7403 58.5854 86.44 58.163 86.8561 57.3183H89.7117C89.4091 58.3269 88.8292 59.159 87.9718 59.8146C87.1145 60.4576 86.0618 60.7791 84.8137 60.7791C83.8051 60.7791 82.8973 60.5585 82.0905 60.1172C81.2962 59.6633 80.6721 59.0266 80.2182 58.2072C79.777 57.3877 79.5563 56.4421 79.5563 55.3705C79.5563 54.2862 79.777 53.3344 80.2182 52.5149C80.6595 51.6954 81.2773 51.065 82.0715 50.6238C82.8658 50.1825 83.7799 49.9619 84.8137 49.9619C85.8097 49.9619 86.6985 50.1762 87.4802 50.6048C88.2744 51.0335 88.8859 51.645 89.3145 52.4392C89.7558 53.2209 89.9764 54.1223 89.9764 55.1435ZM87.2343 54.3871C87.2217 53.7063 86.9759 53.1642 86.4968 52.7607C86.0177 52.3447 85.4314 52.1367 84.738 52.1367C84.0824 52.1367 83.5277 52.3384 83.0738 52.7418C82.6326 53.1326 82.3615 53.6811 82.2607 54.3871H87.2343ZM100.23 46.6146V60.6089H97.5823V46.6146H100.23Z" fill="white"/>
</svg>
